# xmcd
# 
# Track frame offsets:
#     150
#     19262
#     34642
#     50760
#     69389
#     86546
#     106664
#     125258
#     145228
#     161301
# 
# Disc length: 2404
# 
# Revision: 4
# Processed by: cddbd v1.5.2PL0 Copyright (c) Steve Scherf et al.
# Submitted via: fre:ac v1.0.17
# 
DISCID=7909620a
DTITLE=Chris Rea - The Return Of The Fabulous Hofner Blue Notes [CD3]
DYEAR=2008
DGENRE=Blues
TTITLE0=Twister Inside
TTITLE1=When The Truth Comes Out
TTITLE2=Because It's You
TTITLE3=Looking Glass Blues
TTITLE4=Blues For Janice
TTITLE5=Meet Me On The Mountain
TTITLE6=Skylark Blues
TTITLE7=Which Part Of The Painting Made You Cry?
TTITLE8=The Days I Spent with You (Song For Bella)
TTITLE9=Yes I Do
EXTD=
EXTT0=
EXTT1=
EXTT2=
EXTT3=
EXTT4=
EXTT5=
EXTT6=
EXTT7=
EXTT8=
EXTT9=
PLAYORDER=
